<svg xmlns="http://www.w3.org/2000/svg" data-name="Layer 1" viewBox="0 0 512 512"><polygon fill="#4a4f60" points="392.502 380.133 388.432 371.993 408.912 358.32 463.547 328.214 470.071 340.8 458.803 381.44 412.842 392.115 392.502 380.133"/><rect width="117.585" height="109.381" x="109.399" y="99.045" fill="#ffe966" rx="10"/><path fill="#ffe236" d="M216.9845,99.04535h-30a10,10,0,0,1,10,10v89.38147a10,10,0,0,1-10,10h30a10,10,0,0,0,10-10V109.04535A10,10,0,0,0,216.9845,99.04535Z"/><path fill="#4a4f60" d="M215.73877,364.14017a48.81452,48.81452,0,0,1-97.629,0s-.63728-8.98206,2.83783-8.76487,94.79117-1.086,94.79117-1.086Z"/><path fill="#3b3f4d" d="M200.73877,354.49884v9.6413a48.8253,48.8253,0,0,1-41.31445,48.24029,48.84662,48.84662,0,0,0,56.31445-48.24029v-9.85083S209.72656,354.37506,200.73877,354.49884Z"/><path fill="#fff" d="M185.88867,366.235c-1.30774,8.05962-8.59179,16.79768-18.96435,16.71182-10.5011-.08692-18.67591-9.17225-18.80677-18.80666a18.80482,18.80482,0,0,1,9.97022-16.58385c9.39587-4.93582,21.55383-.39485,26.06323,7.819A17.07838,17.07838,0,0,1,185.88867,366.235Z"/><path fill="#f66" d="M385.30518,356.05843,83.99341,359.782c-16.75818-28.78484,7.80249-87.47067,49.4032-111.51214,21.85608-12.63076,44.16992-13.24552,56.72009-12.502h76.64453c-15.999,24.35769-14.33166,55.44179,3.103,75.40348,14.066,16.10468,36.72986,23.07822,56.9834,18.61813,48.55395-10.69213,45.52209-66.83728,37.49133-104.7647-.605-2.85713-9.18529-33.57634-13.49327-46.18106l32.16905,7.31465c11.72461,32.61878,38.89429,117.9059,38.89429,117.9059Z"/><path fill="#ff4e4e" d="M190.1167 235.76788a115.82689 115.82689 0 0 0-13.86011 0zM254.86426 311.17133c12.95434 14.83178 33.1997 21.91058 52.14013 19.45434a59.3823 59.3823 0 0 1-37.14013-19.45434c-17.43469-19.96167-19.102-51.04578-3.103-75.40345h-15C235.76221 260.12555 237.42957 291.20966 254.86426 311.17133zM383.01477 186.15839l-32.16907-7.3147c.37574 1.0993.78553 2.34332 1.218 3.68768l15.95105 3.627c11.72461 32.61877 38.89429 117.90588 38.89429 117.90588h15S394.73938 218.77716 383.01477 186.15839z"/><path fill="#4a4f60" d="M474.04919,330.73559a48.81884,48.81884,0,1,1-81.54711,49.39715"/><path fill="#3b3f4d" d="M474.04919,330.7356l-10.06958,6.09967a48.79786,48.79786,0,0,1-32.70422,75.834,48.80787,48.80787,0,0,0,42.7738-81.93365Z"/><path fill="#fff" d="M447.75745,347.93461A18.80947,18.80947,0,1,1,419.928,364.722a21.46182,21.46182,0,0,1,27.82947-16.78738Z"/><path fill="#ff4e4e" d="M83.99682,359.784c11.48058-53.16469,61.10558-83.1568,101.46536-72.81627,29.24328,7.49238,52.31949,35.82547,57.703,70.76536Z"/><path fill="#ff3636" d="M185.46216,286.96777a69.17025,69.17025,0,0,0-31.60742-.38543c.53711.12274,1.07348.24865,1.60742.38543,29.24328,7.49237,52.31958,35.82544,57.703,70.76538L84.08545,359.39636c-.02857.12982-.06055.25757-.08862.3877l159.16833-2.05091C237.78174,322.79321,214.70544,294.46014,185.46216,286.96777Z"/><path fill="#ff4e4e" d="M415.70391,299.688h3.46058a59.98073,59.98073,0,0,1,59.98073,59.98073v.00008a0,0,0,0,1,0,0H355.72316a0,0,0,0,1,0,0v-.00007A59.98075,59.98075,0,0,1,415.70391,299.688Z" transform="rotate(-30.755 417.434 329.678)"/><path fill="#ff3636" d="M485.80237,323.8938a59.994,59.994,0,0,0-66.55286-27.39911,59.96206,59.96206,0,0,1,25.50139,13.80313,13.51984,13.51984,0,0,1-2.31292,21.54857L373.60168,372.808a60.04619,60.04619,0,0,0,6.1366,14.2v.00006l106.06421-63.1142Z"/><path fill="#4a4f60" d="M360.2002,171.6123H309.9707a7.5,7.5,0,0,1,0-15h50.2295a7.5,7.5,0,0,1,0,15Z"/><path fill="#ff4e4e" d="M367.24576,142.06639H394.611a3,3,0,0,1,3,3v38.092a3,3,0,0,1-3,3H367.24576a22.046,22.046,0,0,1-22.046-22.046v0a22.046,22.046,0,0,1,22.046-22.046Z"/><path fill="#ff3636" d="M394.61108,142.06641h-15a3.00007,3.00007,0,0,1,3,3v38.09192a3.00007,3.00007,0,0,1-3,3h15a3.00007,3.00007,0,0,0,3-3V145.06641A3.00007,3.00007,0,0,0,394.61108,142.06641Z"/><path fill="#4a4f60" d="M79.39941 131.23584H37.5a7.5 7.5 0 0 1 0-15H79.39941a7.5 7.5 0 0 1 0 15zM79.39941 161.23584H22.5a7.5 7.5 0 0 1 0-15H79.39941a7.5 7.5 0 0 1 0 15zM79.39941 191.23584H7.5a7.5 7.5 0 0 1 0-15H79.39941a7.5 7.5 0 0 1 0 15z"/><rect width="140.855" height="27.345" x="137.656" y="208.427" fill="#4a4f60" rx="13.673"/><path fill="#3b3f4d" d="M264.83862,208.42682h-30a13.67267,13.67267,0,1,1,0,27.34534h30a13.67267,13.67267,0,1,0,0-27.34534Z"/><path fill="#4a4f60" d="M504.5,421.5H7.5a7.5,7.5,0,0,1,0-15h497a7.5,7.5,0,0,1,0,15Z"/></svg>