<svg xmlns="http://www.w3.org/2000/svg" data-name=" 1" viewBox="0 0 128 128"><polyline fill="#ff8a65" points="90.69 74.16 105.39 119.28 88.91 114.12 78.65 128 65.04 86.23"/><polyline fill="#ff8a65" points="36.17 75.14 22.61 119.28 39.09 114.12 49.35 128 62.07 86.44"/><path fill="#ffe082" d="M68.07,3.2l3.76-2.13A8.26,8.26,0,0,1,83.21,4.41l2,3.83a8.26,8.26,0,0,0,6.84,4.4l4.32.24a8.26,8.26,0,0,1,7.76,9l-.37,4.31a8.26,8.26,0,0,0,3.38,7.4l3.5,2.54a8.26,8.26,0,0,1,1.69,11.73l-2.64,3.42a8.26,8.26,0,0,0-1.16,8.05l1.57,4a8.26,8.26,0,0,1-4.92,10.78l-4.07,1.45a8.26,8.26,0,0,0-5.33,6.15l-.85,4.24a8.26,8.26,0,0,1-10,6.41l-4.21-1a8.26,8.26,0,0,0-7.81,2.29l-3,3.1a8.26,8.26,0,0,1-11.85,0l-3-3.1a8.26,8.26,0,0,0-7.81-2.29l-4.21,1a8.26,8.26,0,0,1-10-6.41l-.85-4.24a8.26,8.26,0,0,0-5.33-6.15l-4.07-1.45a8.26,8.26,0,0,1-4.92-10.78l1.57-4a8.26,8.26,0,0,0-1.16-8.05l-2.64-3.42a8.26,8.26,0,0,1,1.69-11.73l3.5-2.54a8.26,8.26,0,0,0,3.38-7.4l-.37-4.31a8.26,8.26,0,0,1,7.76-9l4.32-.24a8.26,8.26,0,0,0,6.84-4.4l2-3.83A8.26,8.26,0,0,1,56.17,1.07L59.93,3.2A8.26,8.26,0,0,0,68.07,3.2Z"/><circle cx="64" cy="49.64" r="20.55" fill="#fff"/><path fill="#ffb74d" d="M64,29.09A20.55,20.55,0,1,1,43.45,49.64,20.55,20.55,0,0,1,64,29.09m0-8A28.55,28.55,0,1,0,92.55,49.64,28.58,28.58,0,0,0,64,21.09Z"/></svg>